<svg xmlns="http://www.w3.org/2000/svg" viewBox="0 0 560 170" role="img" aria-label="FarmShare USA">
  <title>FarmShare USA horizontal logo</title>
  <style>@import url('https://fonts.googleapis.com/css2?family=Baloo+2:wght@500;600;700&amp;display=swap'); .wm{font-family:'Baloo 2',system-ui,sans-serif;}</style>
  <g transform="translate(6,8) scale(0.82)">
    <path d="M156 50 A70 70 0 1 1 120 16" fill="none" stroke="#1F5130" stroke-width="5" stroke-linecap="round"/>
    <g stroke="#3C7A33" stroke-width="4.2" fill="none" stroke-linecap="round">
      <path d="M44 120 Q95 105 146 120"/>
      <path d="M37 133 Q95 115 153 133"/>
      <path d="M44 146 Q95 129 146 146"/>
    </g>
    <polygon points="63,82 95,52 127,82" fill="#1F5130"/>
    <rect x="71" y="80" width="48" height="38" rx="2" fill="#1F5130"/>
    <rect x="87" y="91" width="16" height="17" fill="#F7F4EC"/>
    <line x1="95" y1="91" x2="95" y2="108" stroke="#1F5130" stroke-width="2"/>
    <line x1="87" y1="99.5" x2="103" y2="99.5" stroke="#1F5130" stroke-width="2"/>
    <path d="M150 48 C151 31 164 20 180 18 C179 34 168 48 152 50 Z" fill="#4E8A2F"/>
    <path d="M150 48 C136 45 128 31 129 16 C145 19 156 32 153 47 Z" fill="#7CB342"/>
    <path d="M150 49 L141 30" stroke="#1F5130" stroke-width="1.6" stroke-linecap="round" fill="none"/>
  </g>
  <text x="188" y="92" class="wm" font-weight="700" font-size="68" letter-spacing="-2" fill="#12321A">farmshare</text>
  <line x1="190" y1="116" x2="214" y2="116" stroke="#1F5130" stroke-width="2"/>
  <text x="224" y="123" class="wm" font-weight="600" font-size="19" letter-spacing="7" fill="#1F5130">USA</text>
</svg>
